<svg width="243" height="236" viewBox="0 0 243 236" fill="none" xmlns="http://www.w3.org/2000/svg">
<path fill-rule="evenodd" clip-rule="evenodd" d="M158.29 1.55408C152.415 0.927856 146.427 0.60498 140.349 0.60498C62.8362 0.60498 0 53.1011 0 117.858C0 182.616 62.8362 235.112 140.349 235.112C141.875 235.112 143.396 235.091 144.911 235.051C75.8707 227.691 22.5032 178.426 22.5032 118.747C22.5032 55.2646 82.889 3.56567 158.29 1.55408Z" fill="#2BB739"/>
<path fill-rule="evenodd" clip-rule="evenodd" d="M200.29 1.94907C194.415 1.32283 188.427 1 182.349 1C104.836 1 42 53.4961 42 118.253C42 183.011 104.836 235.507 182.349 235.507C183.875 235.507 185.396 235.486 186.911 235.446C117.871 228.086 64.5032 178.821 64.5032 119.142C64.5032 55.6597 124.889 3.96065 200.29 1.94907Z" fill="#2B2B2B"/>
<path fill-rule="evenodd" clip-rule="evenodd" d="M242.29 1.94907C236.415 1.32283 230.427 1 224.349 1C146.836 1 84 53.4961 84 118.253C84 183.011 146.836 235.507 224.349 235.507C225.875 235.507 227.396 235.486 228.911 235.446C159.871 228.086 106.503 178.821 106.503 119.142C106.503 55.6597 166.889 3.96065 242.29 1.94907Z" fill="#2BB739"/>
</svg>
