<svg width="166" height="65" viewBox="0 0 166 65" fill="none" xmlns="http://www.w3.org/2000/svg">
<g clip-path="url(#clip0_4_27)">
<path d="M7.21742 65C6.18863 65 5.13496 64.9538 4.05642 64.8614C2.97788 64.769 1.97735 64.6507 1.05483 64.5064C0.778847 64.4714 0.51129 64.3878 0.264576 64.2596C0.171052 64.1964 0.0968636 64.1086 0.0501851 64.006C0.00350649 63.9034 -0.0138499 63.79 2.86093e-05 63.6782V62.1705C-0.0324889 61.9081 0.0248784 61.6425 0.162827 61.4167C0.391569 61.2719 0.664141 61.2121 0.932727 61.2476C1.73078 61.2698 2.52528 61.3626 3.30687 61.5248C4.6268 61.7337 5.96259 61.8264 7.29882 61.802C8.70748 61.802 9.68766 61.5857 10.2394 61.153C10.5176 60.9294 10.7382 60.6428 10.8827 60.317C11.0273 59.9913 11.0916 59.6358 11.0703 59.2802C11.0703 58.0294 10.4689 57.1572 9.26597 56.6637C8.06307 56.1701 6.74485 55.6788 5.31132 55.1898C3.92483 54.7404 2.63275 54.0415 1.49913 53.1277C0.499729 52.2848 2.86093e-05 51.0273 2.86093e-05 49.3551C2.86093e-05 47.4891 0.696444 46.0433 2.08927 45.0179C3.4821 43.9925 5.63805 43.4798 8.55711 43.4798C9.63905 43.4798 10.6124 43.5237 11.4773 43.6049C12.3422 43.686 13.1392 43.7874 13.8515 43.9125C14.1463 43.958 14.433 44.0457 14.7028 44.1728C14.8655 44.2641 14.9469 44.477 14.9469 44.8049V46.2484C14.9633 46.3717 14.9537 46.497 14.9187 46.6163C14.8836 46.7357 14.8239 46.8464 14.7435 46.9414C14.5255 47.0758 14.2693 47.1352 14.0142 47.1104C13.3315 47.0891 12.6512 47.0168 11.9793 46.8941C10.7699 46.7319 9.54998 46.6607 8.32988 46.6811C7.16655 46.6811 6.2949 46.8941 5.73528 47.3268C5.44931 47.5523 5.22248 47.8436 5.07421 48.1757C4.92594 48.5077 4.86067 48.8707 4.88398 49.2334C4.88398 50.2363 5.43794 50.9845 6.54588 51.478C7.65381 51.9716 8.88384 52.4527 10.236 52.9215C11.7003 53.3955 13.0756 54.1083 14.3059 55.0309C15.4003 55.8805 15.9475 57.1358 15.9475 58.7968C15.9475 60.8882 15.2239 62.4466 13.7768 63.472C12.3297 64.4974 10.1433 65.0067 7.21742 65Z" fill="#2BB739"/>
<path d="M21.4521 64.5369C21.1763 64.5602 20.8989 64.5197 20.6415 64.4186C20.5694 64.3687 20.5123 64.3001 20.4764 64.2203C20.4406 64.1405 20.4273 64.0524 20.438 63.9656V49.0914C20.4274 49.0041 20.4407 48.9156 20.4765 48.8353C20.5124 48.7549 20.5694 48.6857 20.6415 48.6351C20.8994 48.5357 21.1764 48.4953 21.4521 48.5167H24.4537C24.716 48.4961 24.9796 48.5366 25.2236 48.6351C25.2957 48.6857 25.3527 48.7549 25.3885 48.8353C25.4243 48.9156 25.4377 49.0041 25.4271 49.0914V63.9656C25.4376 64.0504 25.4263 64.1364 25.3943 64.2157C25.3622 64.2949 25.3105 64.3647 25.2439 64.4186C24.9942 64.522 24.7228 64.5626 24.4537 64.5369H21.4521Z" fill="#2BB739"/>
<path d="M32.363 64.5369C32.0837 64.5652 31.8022 64.5123 31.5524 64.3848C31.4757 64.3094 31.4175 64.2174 31.3822 64.116C31.3469 64.0146 31.3355 63.9064 31.3489 63.7999V44.6698C31.3355 44.5633 31.3469 44.4551 31.3822 44.3537C31.4175 44.2523 31.4757 44.1603 31.5524 44.0849C31.8022 43.9574 32.0837 43.9045 32.363 43.9328H35.931C36.2761 43.9089 36.6224 43.9561 36.9484 44.0714C37.187 44.2192 37.3713 44.4397 37.4742 44.7002L43.8436 56.2344L50.0876 44.7002C50.2066 44.4407 50.4048 44.2253 50.654 44.0849C50.9791 43.9652 51.3255 43.9134 51.6715 43.9328H55.2429C55.5154 43.9101 55.7888 43.9627 56.0332 44.0849C56.1144 44.1576 56.1769 44.2486 56.2152 44.3504C56.2536 44.4523 56.2668 44.5618 56.2536 44.6698V63.7999C56.2668 63.9045 56.2575 64.0107 56.2265 64.1115C56.1956 64.2123 56.1435 64.3054 56.0739 64.3848C55.832 64.514 55.5564 64.567 55.2836 64.5369H52.3227C52.0421 64.572 51.7575 64.5188 51.5087 64.3848C51.3831 64.217 51.3261 64.008 51.3493 63.7999L51.7122 49.4362L46.1974 59.3106C46.0854 59.5643 45.9117 59.7862 45.6921 59.9563C45.4136 60.0586 45.1164 60.1001 44.8204 60.078H42.9923C42.6684 60.0999 42.3435 60.0527 42.0393 59.9394C41.8049 59.7814 41.6166 59.5645 41.4932 59.3106L35.9377 49.4362L36.2905 63.7999C36.3131 64.0084 36.2548 64.2177 36.1277 64.3848C35.8799 64.5181 35.5966 64.5713 35.3171 64.5369H32.363Z" fill="#2BB739"/>
<path d="M62.1686 44.6697C62.1552 44.5632 62.1667 44.4551 62.2019 44.3537C62.2372 44.2523 62.2954 44.1603 62.3721 44.0849C62.6222 43.9583 62.9035 43.9055 63.1827 43.9328H70.6036C73.7148 43.9328 76.0811 44.4557 77.7023 45.5013C79.3235 46.547 80.134 48.2993 80.134 50.758C80.134 53.1987 79.337 54.9938 77.743 56.1431C76.1489 57.2925 73.7691 57.866 70.6036 57.8638H67.1543V63.7999C67.167 63.9048 67.1572 64.0111 67.1256 64.1119C67.0941 64.2127 67.0414 64.3057 66.9711 64.3847C66.7292 64.514 66.4537 64.567 66.1809 64.5369H63.1793C62.9001 64.5642 62.6188 64.5114 62.3687 64.3847C62.2921 64.3094 62.2338 64.2174 62.1986 64.116C62.1633 64.0146 62.1519 63.9064 62.1652 63.7999L62.1686 44.6697ZM70.4815 47.1307H67.1543V54.6658H70.4781C71.941 54.6658 73.084 54.3526 73.907 53.7261C74.7301 53.0996 75.1416 52.1417 75.1416 50.8527C75.1416 49.4374 74.7301 48.4627 73.907 47.9285C73.084 47.3944 71.9421 47.1285 70.4815 47.1307Z" fill="#2B2B2B"/>
<path d="M98.8695 63.7999C98.8695 64.1075 98.8016 64.307 98.6694 64.3983C98.4302 64.5135 98.164 64.5614 97.8995 64.5369H85.4488C85.1685 64.5645 84.8861 64.5117 84.6348 64.3847C84.5588 64.309 84.5012 64.2169 84.4665 64.1155C84.4318 64.0141 84.4209 63.9062 84.4347 63.7999V44.6697C84.4209 44.5635 84.4318 44.4555 84.4665 44.3541C84.5012 44.2527 84.5588 44.1606 84.6348 44.0849C84.8861 43.958 85.1685 43.9052 85.4488 43.9328H88.447C88.7141 43.9073 88.9829 43.9602 89.2203 44.0849C89.2957 44.1611 89.3529 44.2532 89.3875 44.3545C89.4222 44.4558 89.4334 44.5635 89.4204 44.6697V61.3085H97.8995C98.1639 61.2856 98.4297 61.3335 98.6694 61.4471C98.8016 61.5384 98.8695 61.7378 98.8695 62.0454V63.7999Z" fill="#2BB739"/>
<path d="M102.519 44.6697C102.506 44.5632 102.517 44.4551 102.552 44.3537C102.588 44.2523 102.646 44.1603 102.722 44.0849C102.973 43.9583 103.254 43.9055 103.533 43.9328H117.201C117.466 43.9079 117.732 43.9558 117.971 44.0714C118.107 44.1615 118.175 44.361 118.175 44.6697V46.36C118.175 46.671 118.107 46.8704 117.971 46.9617C117.732 47.0757 117.466 47.1235 117.201 47.1003H107.515V52.3975H116.723C116.988 52.373 117.254 52.4209 117.493 52.5361C117.629 52.6285 117.696 52.8381 117.696 53.1649V54.7639C117.712 54.8751 117.701 54.9883 117.666 55.0949C117.631 55.2015 117.571 55.2987 117.493 55.3791C117.258 55.5067 116.99 55.5608 116.723 55.5346H107.515V61.3457H117.615C117.888 61.3146 118.164 61.3689 118.405 61.5012C118.477 61.5853 118.531 61.6835 118.562 61.7895C118.594 61.8954 118.603 62.0068 118.588 62.1164V63.8067C118.588 64.1132 118.527 64.3126 118.405 64.405C118.16 64.5245 117.886 64.5725 117.615 64.5436H103.54C103.261 64.5709 102.979 64.5182 102.729 64.3915C102.653 64.3161 102.594 64.2241 102.559 64.1227C102.524 64.0213 102.512 63.9132 102.526 63.8067L102.519 44.6697Z" fill="#2BB739"/>
<path d="M132.029 20.7596C132.029 19.8581 132.176 19.2462 132.47 18.924C132.765 18.6096 133.335 18.4473 134.166 18.4473H163.673C164.514 18.4473 165.084 18.6096 165.369 18.924C165.654 19.2384 165.81 19.8536 165.81 20.7596V26.5402C165.81 27.4462 165.664 28.0614 165.369 28.3758C165.074 28.6902 164.504 28.8525 163.673 28.8525H154.658V61.6973C154.658 62.6066 154.509 63.2185 154.217 63.5329C153.926 63.8473 153.353 64.0095 152.522 64.0095H145.362C144.519 64.0095 143.953 63.8507 143.666 63.5329C143.379 63.2151 143.231 62.6032 143.222 61.6973V28.8525H134.176C133.335 28.8525 132.765 28.7071 132.481 28.4096C132.196 28.1121 132.04 27.5375 132.04 26.6754L132.029 20.7596Z" fill="#2B2B2B"/>
<path d="M126.311 36.8068V30.6881C126.311 29.9883 126.46 29.5184 126.752 29.2716C127.044 29.0249 127.617 28.9066 128.448 28.9066H135.57C136.415 28.9066 136.981 29.0283 137.266 29.2716C137.551 29.515 137.707 29.9883 137.707 30.6881V62.228C137.707 62.9278 137.558 63.3977 137.266 63.6444C136.974 63.8912 136.401 64.0095 135.57 64.0095H128.448C127.602 64.0095 127.037 63.8878 126.752 63.6444C126.46 63.3977 126.311 62.9278 126.311 62.228V36.8068Z" fill="#2B2B2B"/>
<path d="M22.5069 27.8045C20.2349 25.3024 19.0528 22.0033 19.2207 18.6327C19.3887 15.2621 20.8928 12.0959 23.4023 9.83044" stroke="#2BB739" stroke-width="2" stroke-miterlimit="10" stroke-linecap="round"/>
<path d="M16.5139 31.5839C13.3201 28.0665 11.6589 23.4287 11.8955 18.6906C12.1321 13.9525 14.2472 9.50209 17.7756 6.31815" stroke="#2B2B2B" stroke-width="2" stroke-miterlimit="10" stroke-linecap="round"/>
<path d="M9.15744 35.681C0.464692 26.1041 2.09607 10.5066 12.8068 0.845123" stroke="#2BB739" stroke-width="2" stroke-miterlimit="10" stroke-linecap="round"/>
<path d="M136.612 18.4473H127.447C126.82 18.4473 126.311 18.9543 126.311 19.5798V27.7741C126.311 28.3995 126.82 28.9066 127.447 28.9066H136.612C137.239 28.9066 137.748 28.3995 137.748 27.7741V19.5798C137.748 18.9543 137.239 18.4473 136.612 18.4473Z" fill="#2BB739"/>
<path d="M24.8641 43.9396H20.9976C20.6885 43.9396 20.438 44.1893 20.438 44.4974V47.9725C20.438 48.2806 20.6885 48.5303 20.9976 48.5303H24.8641C25.1731 48.5303 25.4237 48.2806 25.4237 47.9725V44.4974C25.4237 44.1893 25.1731 43.9396 24.8641 43.9396Z" fill="#2B2B2B"/>
<path d="M75.3858 3.73883H70.9156V20.4824H75.3858V3.73883Z" fill="#2BB739"/>
<path d="M54.6595 20.381H48.6699C47.9746 20.381 47.5134 20.5094 47.2793 20.7663C47.0453 21.0233 46.9402 21.5405 46.9402 22.3146V29.5252C46.8127 29.5575 46.6817 29.5734 46.5501 29.5725H46.211C44.5627 29.5725 43.4197 29.0643 42.782 28.0479C42.1444 27.0315 41.8267 24.8466 41.829 21.4931C41.829 18.5251 42.1467 16.5407 42.782 15.5401C43.4174 14.5395 44.7492 14.0403 46.7774 14.0425C47.9378 14.0411 49.0973 14.1054 50.2504 14.2352C51.3018 14.3591 52.3595 14.4234 53.4182 14.4279C54.0965 14.4279 54.5273 14.2758 54.7443 13.9682C54.987 13.5861 55.1054 13.1386 55.0835 12.687V8.7656C55.0835 7.67033 54.9885 6.92662 54.7986 6.54124C54.6087 6.15587 54.1203 5.86515 53.347 5.71979C52.5737 5.57442 51.4002 5.38174 49.9553 5.233C48.5781 5.0784 47.1934 4.99828 45.8074 4.99298C40.9483 4.99298 37.4538 6.31588 35.3238 8.96167C33.1939 11.6075 32.1142 15.8489 32.0848 21.6858C32.0848 27.32 33.1023 31.5614 35.1373 34.41C37.1723 37.2586 40.9133 38.6784 46.3602 38.6694C47.8475 38.6675 49.3333 38.5783 50.81 38.4023C52.3295 38.2265 53.6681 38.0248 54.8257 37.7972C55.46 37.6688 55.8805 37.4592 56.084 37.1448C56.2875 36.8304 56.3859 36.2997 56.3859 35.5255V22.3112C56.3859 21.5371 56.2706 21.0232 56.0467 20.763C55.8229 20.5027 55.3548 20.381 54.6595 20.381Z" fill="#2B2B2B"/>
<path d="M83.9632 9.05633C82.2154 6.96043 79.6592 5.67584 76.2947 5.20258V10.5404C77.3476 10.8552 78.2675 11.5061 78.9131 12.3929C79.9848 13.9073 80.5207 16.9351 80.5207 21.4762C80.5207 26.3982 79.9848 29.639 78.9131 31.1985C77.8413 32.7581 75.9725 33.5389 73.3067 33.5412C70.6861 33.5412 68.8049 32.7603 67.663 31.1985C66.5212 29.6367 65.9491 26.396 65.9469 21.4762C65.9469 16.9329 66.5189 13.9051 67.663 12.3929C68.3027 11.5636 69.1768 10.9443 70.1729 10.6147V5.20596C66.8174 5.65669 64.2737 6.93789 62.5417 9.04957C60.3281 11.754 59.2202 15.939 59.2179 21.6047C59.2179 27.3493 60.3394 31.6312 62.5824 34.4506C64.8254 37.2699 68.3493 38.6807 73.1541 38.6829C78.0448 38.6829 81.6343 37.2721 83.9225 34.4506C86.2107 31.629 87.3537 27.347 87.3514 21.6047C87.3514 15.9525 86.222 11.7697 83.9632 9.05633Z" fill="#2B2B2B"/>
</g>
<defs>
<clipPath id="clip0_4_27">
<rect width="166" height="65" fill="white"/>
</clipPath>
</defs>
</svg>
