<svg width="1440" height="1205" viewBox="0 0 1440 1205" fill="none" xmlns="http://www.w3.org/2000/svg">
<path d="M122 249.793C122 234.112 134.076 221.076 149.712 219.88L1285.71 132.97C1303.13 131.637 1318 145.412 1318 162.883L1318 955.895C1318 971.908 1305.42 985.099 1289.43 985.861L153.428 1040C136.318 1040.82 122 1027.17 122 1010.04L122 249.793Z" fill="#2B2B2B"/>
<path d="M1056 177.78C1056 162.07 1068.12 149.02 1083.79 147.861L1286.29 132.883C1303.68 131.596 1318.5 145.36 1318.5 162.801L1318.5 955.84C1318.5 971.876 1305.89 985.076 1289.87 985.809L1087.37 995.066C1070.28 995.847 1056 982.204 1056 965.097L1056 177.78Z" fill="#2BB739"/>
</svg>
