<svg width="195" height="204" viewBox="0 0 195 204" fill="none" xmlns="http://www.w3.org/2000/svg">
<path d="M171.515 23.5057C159.401 10.7899 141.684 2.99631 118.363 0.125V32.5093C125.661 34.4197 132.037 38.3685 136.512 43.7485C143.94 52.9367 147.655 71.3063 147.655 98.8572C147.655 128.719 143.94 148.381 136.512 157.842C129.083 167.304 116.13 172.042 97.6528 172.055C79.4888 172.055 66.4497 167.318 58.5353 157.842C50.6208 148.367 46.6558 128.705 46.6401 98.8572C46.6401 71.2926 50.6052 52.923 58.5353 43.7485C62.9687 38.7174 69.0277 34.9599 75.9313 32.9605V0.145508C52.6739 2.88009 35.0428 10.6532 23.0379 23.4647C7.69497 39.8722 0.0156721 65.2628 0 99.6366C0 134.489 7.77335 160.467 23.3201 177.572C38.8668 194.677 63.2917 203.236 96.5949 203.25C130.494 203.25 155.373 194.691 171.233 177.572C187.093 160.454 195.016 134.475 195 99.6366C195 65.3449 187.172 39.9679 171.515 23.5057Z" fill="#2B2B2B"/>
</svg>
